<?xml version="1.0" encoding="UTF-8" standalone="no"?>
<!DOCTYPE svg PUBLIC "-//W3C//DTD SVG 1.1//EN" "http://www.w3.org/Graphics/SVG/1.1/DTD/svg11.dtd">
<svg width="100%" height="100%" viewBox="0 0 200 200" version="1.1" xmlns="http://www.w3.org/2000/svg" xmlns:xlink="http://www.w3.org/1999/xlink" xml:space="preserve" xmlns:serif="http://www.serif.com/" style="fill-rule:evenodd;clip-rule:evenodd;stroke-linejoin:round;stroke-miterlimit:2;">
    <g>
        <path d="M28.544,57.008L50.029,57.008L50.029,88.669L45.212,88.669L43.568,84.631C39.363,87.982 34.916,89.657 30.226,89.657C22.504,89.657 16.508,87.058 12.239,81.86C7.971,76.662 5.836,69.338 5.836,59.887C5.836,50.694 8.098,43.255 12.622,37.57C17.146,31.885 23.065,29.042 30.379,29.042C40.013,29.042 45.875,34.57 47.965,45.624L40.854,49.276L40.854,47.858L40.739,44.679C40.255,37.777 37.413,34.326 32.214,34.326C28.391,34.326 25.779,36.159 24.377,39.825C22.975,43.491 22.275,50.321 22.275,60.316C22.275,69.653 22.842,75.996 23.976,79.347C25.11,82.698 27.27,84.373 30.456,84.373C34.202,84.373 36.075,82.025 36.075,77.328L36.075,62.894L28.544,62.894L28.544,57.008ZM191.094,30.03L191.094,35.916L172.4,35.916L172.4,53.658L188.113,53.658L188.113,59.543L172.4,59.543L172.4,82.784L194.267,82.784L194.267,88.669L157.262,88.669L157.262,30.03L191.094,30.03ZM81.186,30.03L95.713,88.669L80.498,88.669L77.401,75.953L61.689,75.953L58.363,88.669L52.437,88.669L67.882,30.03L81.186,30.03ZM148.278,30.03L148.278,88.669L133.674,88.669L133.674,47.858L123.505,88.669L115.057,88.669L104.62,48.546L104.62,88.669L99.536,88.669L99.536,30.03L114.904,30.03L123.849,65.428L132.757,30.03L148.278,30.03ZM63.18,70.068L75.987,70.068L69.832,44.078L63.18,70.068Z"/>
        <path d="M40.533,116.646L34.642,118.23C34.899,116.522 35.027,115.093 35.027,113.944C35.027,106.553 31.942,102.857 25.774,102.857C20.907,102.857 18.474,105.404 18.474,110.497C18.474,114.317 21.196,117.593 26.638,120.326C37.14,125.575 42.39,133.339 42.39,143.619C42.39,149.644 40.918,154.481 37.972,158.13C35.027,161.779 31.11,163.603 26.222,163.603C15.401,163.603 9.99,157.501 9.99,145.296C9.99,144.302 10.043,143.075 10.15,141.615L16.265,139.659C15.795,142.361 15.561,144.706 15.561,146.693C15.561,154.581 18.666,158.526 24.877,158.526C29.851,158.526 32.337,155.684 32.337,150.001C32.337,145.777 29.36,142.066 23.405,138.867C14.803,134.271 10.502,126.926 10.502,116.833C10.502,111.118 11.937,106.514 14.808,103.02C17.679,99.527 21.452,97.78 26.126,97.78C35.731,97.78 40.533,104.069 40.533,116.646ZM78.633,98.851L78.633,105.233L67.908,105.233L67.908,162.439L54.461,162.439L54.461,105.233L43.671,105.233L43.671,98.851L78.633,98.851ZM121.505,161.883L121.505,98.296L140.298,98.296C145.186,98.296 149.092,99.794 152.016,102.791C154.941,105.788 156.403,109.802 156.403,114.833C156.403,122.535 153.265,127.551 146.99,129.88C150.213,131.619 152.299,133.529 153.249,135.61C154.199,137.69 154.844,141.728 155.186,147.722C155.592,154.865 156.413,159.585 157.651,161.883L143.884,161.883C143.009,158.933 142.572,155.253 142.572,150.843L142.507,147.069L142.443,142.318C142.443,134.989 140.416,131.324 136.36,131.324L134.183,131.324L134.183,161.883L121.505,161.883ZM193.606,98.296L193.606,104.678L182.88,104.678L182.88,161.883L169.433,161.883L169.433,104.678L158.644,104.678L158.644,98.296L193.606,98.296ZM134.183,126.06L136.745,126.06C141.547,126.06 143.948,122.411 143.948,115.113C143.948,107.814 141.547,104.165 136.745,104.165L134.183,104.165L134.183,126.06Z"/>
        <g transform="matrix(5.17847e-17,0.917849,-0.702988,4.86167e-17,202.088,23.8176)">
            <path d="M116.204,104.701L150.766,168.488L81.642,168.488L116.204,104.701Z" style="fill:rgb(77,233,84);"/>
        </g>
    </g>
</svg>
